<svg xmlns="http://www.w3.org/2000/svg" viewBox="0 0 184 100" enable-background="new 0 0 184 100"><style type="text/css">.st0{fill:#FFFFFF;} .st1{fill:#B2173A;}</style><g id="Swiss_Army"><path d="M40.8 87.9l.4 3.9h-.7c-.3-1.3-.8-2-1.3-2.3-.5-.4-1.1-.6-1.9-.6-.9 0-1.6.4-1.6 1.5 0 .9.5 1.2 1.6 1.9l1.5.9c1.7 1 2.7 1.8 2.7 3.4 0 2-1.6 3.3-3.9 3.3-.5 0-1.2-.1-1.7-.3-.7-.2-1-.4-1.1-.4-.3 0-.3.3-.3.6h-.6l-.5-4h.6c.4.9.7 1.6 1 1.9.6.7 1.5 1.1 2.6 1.1 1.2 0 1.9-.8 1.9-1.8 0-1.1-.8-1.6-2.1-2.4l-1.6-1c-1.2-.7-1.9-1.5-1.9-2.8 0-1.7 1.2-3.1 3.4-3.1.4 0 1 .1 1.5.3.7.2 1 .4 1.2.4.2 0 .3-.3.4-.6h.4zM59.3 88.1v.6c-.6.1-1.1.3-1.3 1L54.4 100h-.6l-2.5-7-2.4 6.9h-.6l-2.9-7.6c-.6-1.6-1.1-2.7-1.3-3-.2-.3-.5-.5-1-.6H43v-.6h4.5v.6c-.5 0-.7.1-.8.1-.2.1-.3.2-.3.4s.1.4.2.7l2.4 6.4 1.7-5.2-.7-1.5c-.1-.3-.3-.6-.6-.7-.2-.1-.4-.1-.7-.1v-.6h4.6v.7h-.4c-.8 0-.9.3-.9.5s.1.4.2.7l2.2 6.3 1.9-5.7c.1-.3.2-.8.2-1.2 0-.3-.1-.4-.4-.5-.2-.1-.3-.1-.7-.1v-.6h3.9zM64.5 98.2c0 .4.2.6.6.7.2.1.5.2.8.2v.6h-4.7v-.6c.2 0 .7-.2.8-.3.3-.2.5-.3.5-.7v-8.5c0-.6-.8-.9-1.3-1V88h4.7v.6c-.6.1-1.3.3-1.3 1v8.6zM76 87.9l.4 3.9h-.7c-.3-1.3-.8-2-1.3-2.3-.5-.4-1.2-.6-1.9-.6-.9 0-1.6.4-1.6 1.5 0 .9.5 1.2 1.6 1.9l1.5.9c1.7 1 2.7 1.8 2.7 3.4 0 2-1.6 3.3-3.9 3.3-.5 0-1.2-.1-1.7-.3-.7-.2-1-.4-1.2-.4-.3 0-.3.3-.3.6H69l-.5-4h.6c.4.9.7 1.6 1 1.9.6.7 1.5 1.1 2.6 1.1s1.9-.8 1.9-1.8c0-1.1-.8-1.6-2.1-2.4l-1.6-1c-1.2-.7-1.9-1.5-1.9-2.8 0-1.7 1.2-3.1 3.4-3.1.4 0 1 .1 1.5.3.7.2 1 .4 1.2.4.2 0 .3-.3.3-.6h.6zM87 87.9l.4 3.9h-.7c-.3-1.3-.8-2-1.3-2.3-.5-.4-1.2-.6-1.9-.6-.9 0-1.6.4-1.6 1.5 0 .9.5 1.2 1.6 1.9l1.5.9c1.7 1 2.7 1.8 2.7 3.4 0 2-1.6 3.3-3.9 3.3-.5 0-1.2-.1-1.7-.3-.7-.2-1-.4-1.1-.4-.3 0-.3.3-.4.6H80l-.5-4h.5c.4.9.7 1.6 1 1.9.6.7 1.5 1.1 2.6 1.1 1.2 0 1.9-.8 1.9-1.8 0-1.1-.8-1.6-2.1-2.4l-1.6-1c-1.2-.7-1.9-1.5-1.9-2.8 0-1.7 1.2-3.1 3.4-3.1.4 0 1 .1 1.5.3.7.2 1 .4 1.2.4.2 0 .3-.3.4-.6h.6zM99.5 95.4h3.6l-1.9-4.6-1.7 4.6zm2.3-7.5l4.2 9.7c.3.7.5 1 .7 1.2.2.1.5.3 1 .3v.6h-4.4v-.6c.7-.1 1.1-.1 1.1-.5 0-.1 0-.3-.1-.4l-.7-1.7H99l-.5 1.3c-.1.3-.2.5-.2.7 0 .6.5.6 1.1.7v.6h-4v-.6c.5-.1.9-.2 1.1-.4.2-.3.4-.5 1-1.9l3.6-8.9h.7zM114.3 89.3c-.1 0-.5 0-1.2.1v4.9h2c1.5-.1 2.1-.9 2.1-2.6-.1-2.1-1.4-2.4-2.9-2.4m6.1 10.4h-2.8l-2.5-4.4h-2v2.8c0 .4.3.9 1.4 1v.6h-4.9v-.6c.3 0 .6-.1.9-.2.3-.1.6-.4.6-.8v-8.2c0-.8-.8-1.1-1.6-1.1v-.6h5.6c1.9 0 4.3 1.3 4.3 3.5 0 1.1-.5 2.8-2.4 3.4l1.9 3.1c.3.5.7.9 1.5.9v.6zM133.6 88.1h3.5v.6c-.9.1-1.3.4-1.3 1.4v7.5c0 1.1.2 1.3 1.3 1.4v.6h-4.7V99c1.2-.1 1.3-.4 1.3-1.6v-6.7l-4.2 8.9h-.4l-4.1-8.8v6.1c0 .9.1 1.4.4 1.7.2.2.5.3 1.1.4v.6h-4.2V99c.6-.1.9-.3 1.1-.5.1-.2.3-.5.3-1.6V90c0-.5 0-.9-.3-1.1-.2-.2-.5-.2-1-.3v-.7h3.5l3.7 8.3 4-8.1zM150.7 88.1v.7c-.4 0-.7.1-1 .3-.4.3-.9.8-1.4 1.6l-2.5 3.8v3.2c0 .8.1 1 .3 1.1.1.1.4.3 1.4.3v.7h-5.2v-.6c1-.1 1.2-.3 1.3-.4.1-.1.2-.4.2-1.2v-2.8l-2.2-3.2c-.8-1.1-1.3-1.8-1.6-2.2-.3-.3-.6-.4-1.2-.5v-.7h5v.7h-.3c-.4 0-.9.1-.9.5 0 .2.1.4.3.6l2.3 3.4 2.3-3.4c.1-.2.2-.4.2-.6 0-.2-.1-.3-.4-.3-.3-.1-.7-.1-.7-.1v-.7h4.1z"/></g><path id="Victorinox" d="M176.3 69.2l4.8 7.2c.5.7 1 1.2 1.5 1.5.3.2 1 .5 1.4.5v.9h-8v-.9s.8-.1 1.2-.3c.5-.2.6-.8.2-1.3l-3.2-4.8-3.7 4.9c-.7.8 0 1.4.8 1.5v.9h-5.9v-.9c1.3-.2 1.9-.8 2.5-1.6l5-6.7-4.5-6.6c-.7-1.1-1.7-1.7-3-1.7v-.9h8.2v.9c-.8.1-2.2.4-1.6 1.5l2.8 4.2 3.2-4.2c.7-.8.2-1.4-.9-1.5v-.9h5.9v.9c-.8.1-1.4.5-2 1m-31.4 7c0 3.8 1.2 8 5 8 3.9 0 4.9-4.2 4.8-8.1-.1-3.7-.8-7.6-4.8-7.6-4.2 0-5 4-5 7.7m13.8.3c-.1 4.9-3.4 9.6-8.7 9.6-5.4 0-8.9-4.3-9-9.7-.1-5 3.4-9.8 8.9-9.8s8.9 4.9 8.8 9.9m-23.3 9.1h-.7l-11.7-13.6v11.2c0 .5.3.9.8 1.2.5.3.9.3 1.3.4v.9h-6.3v-.9c.4-.1.7-.1 1-.3.6-.2 1.1-.7 1.1-1.3V63.5c-.4-.9-1.5-1.8-2.5-1.8v-.9h4.8l10.3 12.1v-9.6c0-1-1.3-1.6-2.1-1.6v-.9h6.3v.9c-1.3.1-2.3.4-2.3 1.5v16zm-23.7-2.4c0 .6.3.9.9 1.2.4.2.8.3 1.2.4v.9h-7.6v-.9c.4-.1 1.2-.3 1.4-.4.5-.3.9-.5.9-1.2V63.2c0-1-1.3-1.4-2.3-1.5v-.9h7.6v.9c-1.1.2-2.1.4-2.1 1.6v13.5zM97.3 62.6c-.2 0-.9.1-2 .2v7.9h3.2c2.3-.2 3.3-1.4 3.3-4.2.1-3.5-2-3.9-4.5-3.9m9.9 16.6h-4.6l-4-6.9h-3.2v4.5c0 .7.5 1.3 2.3 1.5l.1.9H90v-.9c.4 0 1-.1 1.4-.3.5-.2.9-.7.9-1.3V63.5c0-1.2-1.3-1.7-2.5-1.8v-.9h8.9c3.1 0 6.9 2.1 6.9 5.6 0 1.8-.8 4.5-3.8 5.4l3.1 5c.5.8 1.2 1.3 2.4 1.4l-.1 1zm-35-9.3c-.1 3.8 1.2 8 4.9 8 3.9 0 4.9-4.2 4.8-8.1-.1-3.7-.7-7.6-4.8-7.6s-4.8 3.9-4.9 7.7m13.8.3c-.1 4.9-3.4 9.6-8.7 9.6-5.4 0-8.9-4.3-9-9.7-.1-5 3.4-9.8 8.9-9.8s8.9 4.8 8.8 9.9m-26.1-7.5v14c0 .7.5 1.2 1.2 1.4.4.2.9.2 1.3.3v.9h-7.8v-.9c.4-.1.8-.1 1.3-.3.6-.2 1-.7 1-1.4l-.1-13.9h-2.5c-1.5 0-1.9.6-2.2 1.3-.2.6-.3 1.1-.3 1.7h-1.1V61H66v4.8h-1.1c-.1-.6-.2-1.4-.4-1.9-.4-.7-.9-1-1.6-1h-3zm-12.5-1.9l.1 5h-1c-.3-.8-.5-1.8-1-2.4-.7-.9-1.6-1.2-3.1-1.2-4.8 0-5.2 4.8-5.2 7.8 0 3.1.6 8 5.6 7.9 1.5 0 3.8-.9 5.4-2.9l.2-.2 1 .8-.1.1c-1.7 3.1-5 4.2-7.1 4.2-5.9 0-8.9-5.3-8.9-9.6 0-3.6 2.2-9.7 7.9-9.7 2.2 0 3.8.5 5.2 1.3l.2-.8h.8zm-19.7 16c0 .6.3.9.9 1.2.4.2.8.3 1.2.4v.9h-7.6v-.9c.4-.1 1.1-.3 1.4-.4.5-.3.9-.5.9-1.2V63.2c0-1-1.3-1.4-2.3-1.5v-.9h7.6v.9c-1.1.2-2.1.4-2.1 1.6v13.5zm-17.4-2.1l4.2-11.5c.3-.8 0-1.3-1.5-1.5v-1h6.3v1c-1.1.1-2 .3-2.5 1.7l-6.2 16.5H9.2l-7-16.6C1.6 61.9.4 61.8 0 61.8v-1h7.4v1c-1.3.1-1.5.8-1.4 1.2l4.3 11.7z"/><g id="Shield"><path class="st0" d="M76.7 21c0-5-.8-9.9-2.3-14.4v-.1c1.2-.6 3.6-1.8 6-3.1C83 2 85.9.7 87.3.4c1.9-.4 3.6.2 4.7 1.8C93.1.6 94.8 0 96.7.4c1.5.3 4.3 1.6 6.9 3 2.4 1.3 4.8 2.5 6 3.1v.1c-1.5 4.6-2.3 9.4-2.3 14.4 0 4.8.9 9.4 2.3 13.8v.1c-8 3-12.9 6.6-17.5 11.5H92c-4.6-4.8-9.5-8.5-17.5-11.5v-.1c1.3-4.4 2.2-9 2.2-13.8"/><path class="st1" d="M74.7 34.7C83.4 37.9 88.1 42 92 46c5.2-5.4 10.3-8.7 17.3-11.3-1.5-4.9-2.2-9.4-2.2-13.7 0-4.7.8-9.6 2.3-14.3-1.1-.6-3.4-1.7-5.8-3-3-1.6-5.6-2.7-6.9-3-1.9-.4-3.5.2-4.4 1.7l-.3.3-.2-.4C90.9.9 89.2.2 87.4.6c-1.3.3-3.9 1.4-6.8 3-2.5 1.3-4.7 2.5-5.8 3C76.2 11.4 77 16.2 77 21c0 4.3-.8 8.7-2.3 13.7m17.5 11.8h-.4c-3.9-4-8.7-8.2-17.4-11.4h-.1l-.1-.3v-.1c1.5-5 2.2-9.4 2.2-13.7 0-4.8-.8-9.6-2.3-14.3v-.1l.1-.3h.1c1.1-.5 3.4-1.7 6-3.1 3-1.6 5.7-2.8 7-3 1.9-.4 3.7.2 4.8 1.6 1.1-1.4 2.8-2 4.8-1.6 1.3.3 3.9 1.4 7 3 2.6 1.4 4.9 2.6 6 3.1h.1l.1.3v.1c-1.5 4.8-2.3 9.6-2.3 14.3 0 4.3.7 8.8 2.3 13.7v.1l-.1.3h-.1c-7.3 2.6-12.4 5.9-17.7 11.4zM101.3 5.8c-2-1-4.1-2-5.2-2.2-2.1-.4-3.8 1.3-4 2.3l-.1.2-.1-.2c-.3-1-1.9-2.7-4-2.3-1.1.2-3.2 1.2-5.2 2.2-2 1-3.9 2-4.8 2.4 1.2 3.8 1.8 7.7 1.8 11.9h2.8V18H89v-6.5h5.7V18h6.5v2.1h3c0-4.2.6-8.1 1.8-11.9-.8-.4-2.7-1.4-4.7-2.4M92 42.1c3.9-3.7 8.7-7.2 14-9-.5-1.8-1.1-4.3-1.4-6.8-.3-2.3-.4-4.5-.4-4.7h-3v2.1h-6.5v6.5H89v-6.5h-6.5v-2.1h-2.8c-.1 3.8-.7 8.1-1.7 11.5 5.3 1.8 10.1 5.3 14 9"/></g></svg>